<!-- 这是通过PS 建立工作路径搞起 -->

<?xml version="1.0" encoding="utf-8"?>
<!-- Generator: Adobe Illustrator 16.0.0, SVG Export Plug-In . SVG Version: 6.00 Build 0)  -->
<!DOCTYPE svg PUBLIC "-//W3C//DTD SVG 1.0//EN" "http://www.w3.org/TR/2001/REC-SVG-20010904/DTD/svg10.dtd">
<svg version="1.0" id="图层_1" xmlns="http://www.w3.org/2000/svg" xmlns:xlink="http://www.w3.org/1999/xlink" x="0px" y="0px"
	 width="300px" height="300px" viewBox="0 0 300 300" enable-background="new 0 0 300 300" xml:space="preserve">
<path fill-rule="evenodd" clip-rule="evenodd" d="M30.01,57.417c15.454,1.835,33.585,3.626,49,7c12.811,2.804,26.787,0.383,39,3
	c9.916,2.125,34.545,0.815,43-1c10.332-0.333,20.667-0.667,31-1c19.374-4.202,41.731-5.74,61-8c0,9.999,0,20.001,0,30
	c-18.973,2.252-40.93,3.878-60,8c-10.333,0.333-20.668,0.667-31,1c-8.455,1.809-33.09,3.131-43,1c-12.213-2.626-26.188-0.197-39-3
	c-16.665-2.333-33.335-4.667-50-7C30.01,77.418,30.01,67.416,30.01,57.417z"/>
</svg>
